<?xml version="1.0" encoding="UTF-8"?>
<!DOCTYPE svg PUBLIC "-//W3C//DTD SVG 1.1//EN" "http://www.w3.org/Graphics/SVG/1.1/DTD/svg11.dtd">
<svg xmlns="http://www.w3.org/2000/svg" version="1.1" width="2084px" height="2084px" style="shape-rendering:geometricPrecision; text-rendering:geometricPrecision; image-rendering:optimizeQuality; fill-rule:evenodd; clip-rule:evenodd" xmlns:xlink="http://www.w3.org/1999/xlink">
<g><path style="opacity:0.999" fill="#0866ff" d="M 1014.5,-0.5 C 1032.5,-0.5 1050.5,-0.5 1068.5,-0.5C 1316.3,8.56358 1534.3,92.7302 1722.5,252C 1905.16,412.288 2020,612.455 2067,852.5C 2075.48,899.978 2080.98,947.644 2083.5,995.5C 2083.5,1026.5 2083.5,1057.5 2083.5,1088.5C 2066.21,1376.48 1952.54,1618.31 1742.5,1814C 1579.07,1960.52 1387.73,2048.02 1168.5,2076.5C 1168.5,1837.83 1168.5,1599.17 1168.5,1360.5C 1262.17,1360.67 1355.83,1360.5 1449.5,1360C 1469.34,1254.96 1488.67,1149.8 1507.5,1044.5C 1508.4,1043.79 1508.74,1042.79 1508.5,1041.5C 1395.17,1041.5 1281.83,1041.5 1168.5,1041.5C 1168.33,992.832 1168.5,944.166 1169,895.5C 1170.22,855.292 1179.89,817.292 1198,781.5C 1221.63,743.244 1255.46,718.744 1299.5,708C 1337.28,698.974 1375.62,695.141 1414.5,696.5C 1449.86,696.739 1485.19,697.739 1520.5,699.5C 1521.92,700.451 1523.59,700.784 1525.5,700.5C 1525.83,603.999 1525.5,507.665 1524.5,411.5C 1481.69,401.575 1438.36,394.742 1394.5,391C 1322.42,383.208 1250.42,383.874 1178.5,393C 1110.25,400.861 1046.25,421.527 986.5,455C 920.799,494.533 872.299,549.366 841,619.5C 820.109,667.515 806.109,717.515 799,769.5C 793.3,810.299 790.3,851.299 790,892.5C 789.5,942.166 789.333,991.832 789.5,1041.5C 718.167,1041.5 646.833,1041.5 575.5,1041.5C 575.5,1147.83 575.5,1254.17 575.5,1360.5C 646.833,1360.5 718.167,1360.5 789.5,1360.5C 789.5,1591.5 789.5,1822.5 789.5,2053.5C 567.035,1995.68 382.535,1879.01 236,1703.5C 86.7219,1518.79 7.88854,1307.12 -0.5,1068.5C -0.5,1050.5 -0.5,1032.5 -0.5,1014.5C 11.3901,728.626 119.057,486.126 322.5,287C 516.795,105.745 747.461,9.912 1014.5,-0.5 Z"/></g>
<g><path style="opacity:1" fill="#fefeff" d="M 1524.5,411.5 C 1524.5,507.5 1524.5,603.5 1524.5,699.5C 1523.17,699.5 1521.83,699.5 1520.5,699.5C 1485.19,697.739 1449.86,696.739 1414.5,696.5C 1375.62,695.141 1337.28,698.974 1299.5,708C 1255.46,718.744 1221.63,743.244 1198,781.5C 1179.89,817.292 1170.22,855.292 1169,895.5C 1168.5,944.166 1168.33,992.832 1168.5,1041.5C 1281.67,1041.83 1394.67,1042.83 1507.5,1044.5C 1488.67,1149.8 1469.34,1254.96 1449.5,1360C 1355.83,1360.5 1262.17,1360.67 1168.5,1360.5C 1168.5,1599.17 1168.5,1837.83 1168.5,2076.5C 1141.41,2079.45 1114.41,2081.79 1087.5,2083.5C 1056.83,2083.5 1026.17,2083.5 995.5,2083.5C 926.029,2079.96 857.362,2069.96 789.5,2053.5C 789.5,1822.5 789.5,1591.5 789.5,1360.5C 718.167,1360.5 646.833,1360.5 575.5,1360.5C 575.5,1254.17 575.5,1147.83 575.5,1041.5C 646.833,1041.5 718.167,1041.5 789.5,1041.5C 789.333,991.832 789.5,942.166 790,892.5C 790.3,851.299 793.3,810.299 799,769.5C 806.109,717.515 820.109,667.515 841,619.5C 872.299,549.366 920.799,494.533 986.5,455C 1046.25,421.527 1110.25,400.861 1178.5,393C 1250.42,383.874 1322.42,383.208 1394.5,391C 1438.36,394.742 1481.69,401.575 1524.5,411.5 Z"/></g>
<g><path style="opacity:0.878" fill="#dbe8ff" d="M 1524.5,411.5 C 1525.5,507.665 1525.83,603.999 1525.5,700.5C 1523.59,700.784 1521.92,700.451 1520.5,699.5C 1521.83,699.5 1523.17,699.5 1524.5,699.5C 1524.5,603.5 1524.5,507.5 1524.5,411.5 Z"/></g>
<g><path style="opacity:0.878" fill="#dbe8ff" d="M 1168.5,1041.5 C 1281.83,1041.5 1395.17,1041.5 1508.5,1041.5C 1508.74,1042.79 1508.4,1043.79 1507.5,1044.5C 1394.67,1042.83 1281.67,1041.83 1168.5,1041.5 Z"/></g>
</svg>
